<?xml version="1.0" encoding="utf-8"?>
<!-- Generator: Adobe Illustrator 27.5.0, SVG Export Plug-In . SVG Version: 6.00 Build 0)  -->
<svg version="1.1" xmlns="http://www.w3.org/2000/svg" xmlns:xlink="http://www.w3.org/1999/xlink" x="0px" y="0px"
	 viewBox="0 0 750 500" style="enable-background:new 0 0 750 500;" xml:space="preserve">
<g id="BACKGROUND">
	<g>
		<rect style="fill:#FF2A66;" width="750" height="500"/>
	</g>
</g>
<g id="OBJECTS">
	<g>
		<defs>
			<rect id="SVGID_1_" width="750" height="500"/>
		</defs>
		<clipPath id="SVGID_00000075130901398401822120000003919407915124266422_">
			<use xlink:href="#SVGID_1_"  style="overflow:visible;"/>
		</clipPath>
		<g style="clip-path:url(#SVGID_00000075130901398401822120000003919407915124266422_);">
			<path style="fill:#02004F;" d="M124.602,158.616c17.928,5.084,35.2,15.095,45.051,30.915
				c12.778,20.521,11.035,46.43,12.068,70.582c0.927,21.659,4.613,43.707,15.234,62.606c10.62,18.9,29.082,34.298,50.586,37.047
				c15.446,1.975,35.442-0.343,42.288,13.643c2.356,4.813,2.694,11.142,7.202,14.039c2.894,1.86,6.595,1.619,10.036,1.624
				c26.188,0.034,49.167,17.693,75,21.992c31.264,5.203,64.953-11.884,79.227-40.182c4.074-8.078,6.672-17.553,3.881-26.159
				c-2.239-6.905-7.62-12.295-13.144-17.003c-26.18-22.31-62.655-40.292-67.503-74.345c-2.705-18.998,6.03-37.986,17.95-53.024
				c14.248-17.974,33.81-32.265,56.126-37.565c22.316-5.3,47.355-0.822,64.781,14.092c21.055,18.019,28.099,47.349,31.24,74.883
				s3.818,56.283,16.368,80.991c19.989,39.356,67.666,63.511,75.302,106.987c5.645,32.141-14.17,64.486-40.929,83.165
				c-26.758,18.679-59.419,26.447-91.261,33.588c-123.887,27.785-249.579,51.917-376.544,51.791
				c-73.677-0.073-153.991-11.45-204.915-64.695c-39.175-40.961-53.831-101.473-46.714-157.703
				c6.502-51.371,29.555-101.24,60.351-142.567c26.229-35.198,61.731-68.07,104.055-82.018
				C74.273,153.41,100.211,151.699,124.602,158.616z"/>
			<path style="fill:#FFAD0D;" d="M598.624,453.518c-8.723-26.078-32.417-44.159-45.689-68.242
				c-28.545-51.798-5.008-122.474-38.703-171.078c-10.537-15.199-32.921-26.795-46.782-14.55c-10.575,9.342-8.75,26.299-4.02,39.593
				c12.786,35.932,40.027,66.219,47.707,103.577c8.065,39.237-8.811,82.483-41.321,105.886s-78.876,25.683-113.526,5.582
				c-16.046-9.309-30.063-23.078-48.112-27.368c-23.794-5.656-48.05,6.55-72.496,7.298c-26.595,0.814-52.036-12.175-72.115-29.633
				c-10.254-8.916-19.66-19.404-24.313-32.172c-6.855-18.811-2.545-39.623-3.58-59.618c-1.11-21.43-8.643-42.486-21.379-59.756
				c-10.453-14.174-27.214-26.569-44.405-22.741c-17.56,3.91-27.471,22.985-30.182,40.77c-5.266,34.55,8.835,71.415,35.814,93.631
				c16.431,13.53,38.741,24.2,43.157,45.022c4.782,22.543-17.356,44.229-40.36,45.591c-34.629,2.05-68.132-29.384-100.742-17.551
				c-26.636,9.665-35.903,44.29-29.334,71.853c10.238,42.961,48.484,75.305,90.668,88.381c42.183,13.076,87.774,9.575,131.121,1.121
				c40.393-7.878,80.168-19.954,121.226-22.763c43.204-2.956,86.684,4.512,127.893,17.82c22.128,7.146,44.865,16.104,67.889,12.847
				c39.916-5.647,52.99-39.281,78.987-63.683C590.918,519.971,610.764,489.809,598.624,453.518z"/>
			<path style="fill:#FF2A66;" d="M30.623,183.702c4.988-1.991,10.335-3.485,15.68-2.956c5.345,0.53,10.697,3.411,13.015,8.256
				c2.178,4.553,1.389,9.966-0.135,14.778c-8.044,25.404-33.747,41.661-43.7,66.38c-5.215,12.951-5.634,27.869-0.649,40.91
				c5.958,15.587,18.747,27.334,29.422,40.16c4.254,5.111,8.293,12.588,4.311,17.913c-1.529,2.045-3.964,3.216-6.412,3.943
				c-7.401,2.198-15.456,0.948-22.692-1.744C2.074,364.875-11.386,350.618-21.399,335c-11.701-18.252-19.652-39.573-18.663-61.231
				c0.995-21.794,11.4-37.707,26.862-52.089c6.592-6.132,10.979-14.053,17.344-20.428C11.676,193.709,20.717,187.656,30.623,183.702
				z"/>
			<path style="fill:#FF2A66;" d="M77.434,408.973c-1.858-5.759-6.681-10.425-12.439-12.287c-5.143-1.663-10.547-1.094-15.824-1.819
				c-5.751-0.791-8.676-4.312-11.24,2.159c-2.915,7.357,0.183,12.768,5.895,17.231c5.503,4.301,15.221,14.599,22.032,15.404
				C76.078,430.87,79.889,416.583,77.434,408.973z"/>
			<path style="fill:#FF2A66;" d="M135.795,236.937c7.677,13.287,10.17,28.923,11.171,44.236
				c1.001,15.313,0.657,30.768,3.272,45.889c1.456,8.423,3.919,16.88,8.966,23.78c7.947,10.863,21.087,16.419,31.573,24.859
				c10.037,8.079,17.616,18.804,27.179,27.44c3.617,3.266,7.663,6.3,12.397,7.452c4.734,1.153,10.294,0.029,13.287-3.817
				c2.653-3.409,2.784-8.303,1.213-12.327c-1.571-4.023-4.608-7.302-7.878-10.124c-13.097-11.304-30.825-16.902-42.103-30.022
				c-7.041-8.191-10.916-18.633-13.554-29.107c-8.055-31.978-5.862-66.201-16.801-97.31c-6.669-18.965-18.167-36.21-33.111-49.658
				c-1.608-1.447-3.637-2.949-5.73-2.404c-3.276,0.854-3.367,5.516-2.249,8.711c4.825,13.794,18.064,23.555,22.111,37.597
				c0.645,2.239,0.663,5.306-1.501,6.173c-1.456,0.584-3.089-0.253-4.297-1.253c-5.616-4.646-7.157-12.705-12.092-18.07
				c-5.223-5.677-13.238-7.189-20.637-6.712c-6.44,0.414-10.543,1.875-4.81,7.154c5.076,4.675,12.198,6.544,17.836,10.369
				C126.506,224.181,131.892,230.181,135.795,236.937z"/>
			<path style="fill:#FFAD0D;" d="M443.262,219.926c3.692,34.517,29.383,62.363,41.159,95.018
				c5.51,15.279,7.91,31.474,10.279,47.543c1.567,10.631,3.135,21.456,1.479,32.073c-0.608,3.899-1.747,7.909-4.482,10.753
				c-2.735,2.845-7.444,4.099-10.733,1.918c-2.958-1.961-3.857-5.858-4.192-9.391c-1.952-20.591,6.894-41.654,1.86-61.716
				c-4.118-16.409-16.841-29.172-29.97-39.843c-13.128-10.671-27.473-20.438-37.072-34.37c-9.599-13.931-13.318-33.66-3.639-47.536
				c0.89-1.276,2.382-2.624,3.8-1.983c0.847,0.383,1.255,1.338,1.545,2.221c2.132,6.501,2.288,14.253,7.399,18.8
				c0.809,0.719,1.773,1.346,2.852,1.424c3.463,0.249,4.645-4.463,4.805-7.93c0.481-10.409,2.894-20.726,7.079-30.269
				c1.319-3.007,3.078-6.188,6.153-7.343c2.47-0.927,6.143,0.527,6.861,3.226c0.672,2.524-2.387,5.712-3.297,8.013
				C442.742,206.623,442.574,213.492,443.262,219.926z"/>
			<path style="fill:#E27100;" d="M100.99,282.534c-3.629-6.483-8.43-13.089-15.584-15.096c-7.386-2.072-15.622,1.668-20.137,7.869
				c-4.515,6.201-5.698,14.361-4.672,21.963c0.889,6.584,3.417,13.078,7.957,17.929c4.065,4.344,9.469,7.139,14.306,10.603
				c7.464,5.347,13.679,12.424,18.017,20.516c1.163,2.17,2.241,4.473,4.092,6.096c1.852,1.623,4.76,2.36,6.788,0.964
				c1.018-0.7,1.662-1.816,2.21-2.923C123.611,330.965,110.664,299.818,100.99,282.534z"/>
			<path style="fill:#E27100;" d="M489.296,223.763c-4.088,0.402-8.262,2.766-9.548,6.667c-1.152,3.495,0.251,7.397,2.525,10.291
				c2.274,2.894,5.334,5.044,8.126,7.442c8.419,7.232,14.582,17.053,17.431,27.78c0.399,1.503,0.772,3.094,1.823,4.24
				c1.051,1.146,3.042,1.599,4.14,0.498c0.509-0.51,0.726-1.238,0.874-1.943c0.716-3.402,0.255-6.929-0.209-10.375
				C512.499,253.8,509.931,221.735,489.296,223.763z"/>
			<path style="fill:#E27100;" d="M564.304,451.387c-3.136-5.24-7.507-10.37-13.493-11.583c-4.644-0.941-9.436,0.672-13.647,2.844
				c-14.507,7.484-24.87,21.504-39.526,28.69c-16.442,8.061-35.867,6.437-53.591,11.037c-17.478,4.537-33.581,15.188-51.635,15.515
				c-10.871,0.197-21.465-3.431-31.335-7.993c-14.396-6.654-27.771-15.358-40.392-24.962c-7.122-5.42-14.378-11.308-23.137-13.146
				c-6.857-1.439-14.452-0.048-19.805,4.473c-5.352,4.522-8,12.319-5.685,18.932c2.813,8.032,11.432,12.265,19.384,15.299
				c19.799,7.555,41.14,13.193,56.962,27.29c9.935,8.853,17.496,20.889,29.584,26.453c7.202,3.315,15.325,3.964,23.252,4.085
				c21.347,0.327,42.644-2.806,63.987-2.277c15.518,0.384,30.976,2.702,46.495,2.32c16.108-0.397,39.464-4.22,49.185-18.967
				c3.443-5.222,5.217-12.645,7.531-18.435c3.578-8.953,5.227-18.643,4.885-28.275C572.935,471.726,569.95,460.82,564.304,451.387z"
				/>
			<path style="fill:#E27100;" d="M262.35,501.096c-10.237-8.577-16.329-23.666-10.461-35.664c1.769-3.618,4.597-7.415,3.345-11.243
				c-0.9-2.753-3.675-4.427-6.385-5.452c-5.037-1.906-10.599-2.405-15.895-1.427c-10.177,1.88-18.905,8.961-29.162,10.345
				c-15.925,2.149-30.374-9.994-39.182-23.434c-8.808-13.44-14.504-29.062-25.525-40.757c-2.985-3.168-7.419-6.196-11.384-4.399
				c-4.442,2.014-4.555,8.28-3.343,13.005c3.358,13.092,11.424,24.774,13.549,38.122c1.153,7.243,0.471,14.771-1.965,21.689
				c-1.657,4.705-4.308,9.33-8.604,11.864c-4.467,2.635-9.956,2.612-15.142,2.515c-19.704-0.371-39.407-0.742-59.111-1.114
				c-14.978-0.282-32.507,0.667-41.029,12.987c-4.571,6.608-5.342,15.234-4.029,23.16c1.999,12.071,9.015,23.687,19.92,29.236
				c9.578,4.875,20.947,4.678,31.56,2.983c10.613-1.694,21.041-4.77,31.775-5.29c17.423-0.845,34.367,5.056,50.988,10.348
				c22.879,7.285,46.171,13.572,69.99,16.6c20.783,2.642,42.444,2.684,62.04-4.728c13.207-4.996,26.461-15.756,26.087-29.872
				c-0.254-9.572-2.857-14.03-11.565-16.682C279.385,511.016,270.007,507.512,262.35,501.096z"/>
			<path style="fill:#FFAD0D;" d="M741.629,472.241c6.725-22.633,4.742-49.298-11.011-66.886
				c-10.254-11.448-24.926-17.76-37.214-26.99c-29.827-22.405-43.568-60.319-50.347-97.002
				c-6.779-36.683-8.262-74.636-20.745-109.79c-17.944-50.535-66.535-94.869-119.762-88.34
				c-16.363,2.007-31.896,8.566-48.243,10.697c-22.305,2.908-44.981-2.552-67.38-0.502c-29.789,2.726-58.34,19.86-73.111,45.872
				c-14.771,26.012-14.509,60.378,2.227,85.171c15.551,23.037,43.763,37.797,51.696,64.436c1.531,5.141,2.123,10.994-0.579,15.628
				c-3.65,6.261-11.806,8.053-19.041,8.461c-34.096,1.926-68.21-13.91-90.668-39.637c-22.458-25.727-33.483-60.527-32.498-94.663
				c0.86-29.809,10.063-61.327-2.539-88.356c-14.353-30.786-58.144-43.096-86.436-24.296c-13.18,8.758-22.541,22.568-36.215,30.533
				c-30.722,17.896-70.414,0.655-104.977,8.993c-15.033,3.627-30.688,12.086-45.012,6.256
				c-18.056-7.349-20.772-31.966-16.829-51.057C-57.925,16.573-28.886-21.73,6.952-49.154
				c35.839-27.425,78.22-44.984,121.074-59.128c143.086-47.224,297.663-59.203,446.316-34.586
				c62.64,10.373,127.594,29.068,171.364,75.063c35.805,37.626,53.044,89.058,64.547,139.708
				c16.395,72.192,23.254,146.22,27.165,220.146c3.045,57.539,4.278,115.781-7.385,172.209c-4.634,22.418-11.5,44.865-24.786,63.508
				c-13.286,18.642-33.863,33.133-56.708,34.618c-16.144,1.049-44.052-11.671-38.754-31.646
				c2.557-9.639,13.069-19.517,18.141-28.151C733.563,492.991,738.452,482.934,741.629,472.241z"/>
			<path style="fill:#02004F;" d="M72.961,12.368c31.085-0.972,60.992,15.06,92.034,13.146c19.089-1.177,38.988-9.001,56.639-1.637
				c15.826,6.603,24.735,23.817,28.014,40.649s2.246,34.239,4.98,51.168c1.023,6.334,3.211,13.405,9.036,16.095
				c5.528,2.553,12.093,0.023,17.079-3.473c32.272-22.629,29.427-79.207,65.323-95.488c22.167-10.054,47.612,1.035,71.894,2.725
				c26.686,1.857,53.562-7.944,79.933-3.456c20.989,3.573,39.931,15.976,61.133,17.912c13.637,1.245,27.265-1.943,40.949-2.472
				c36.422-1.408,72.969,17.582,92.751,48.196c3.612,5.59,5.98,14.454,0.189,17.736c-2.12,1.201-4.728,1.122-7.127,0.697
				c-11.65-2.061-20.678-10.998-31.055-16.68c-10.377-5.682-25.782-6.851-31.897,3.277c-2.388,3.955-2.746,8.822-2.349,13.425
				c1.878,21.753,18.583,39.192,35.975,52.391c17.393,13.198,36.939,24.639,49.213,42.695
				c16.659,24.507,16.851,56.544,28.569,83.762c5.774,13.411,16.468,26.825,31.05,27.566c13.988,0.711,25.701-10.537,33.248-22.335
				c20.894-32.664,23.771-73.737,20.457-112.37c-4.345-50.656-18.161-99.957-31.911-148.905
				c-7.988-28.437-16.836-58.341-38.276-78.659c-22.924-21.725-55.987-28.419-87.356-32.09
				c-56.496-6.611-113.539-6.446-170.42-6.272c-125.785,0.385-251.865,0.787-376.871,14.776
				c-32.848,3.676-66.019,8.401-96.536,21.099c-15.467,6.436-30.767,15.519-39.207,29.99c-9.938,17.039-7.585,48.58,17.15,44.996
				C21.946,27.011,45.967,13.212,72.961,12.368z"/>
			<path style="fill:#FFAD0D;" d="M730.212,156.12c-13.057-7.466-23.842-18.75-37.648-24.717c-3.938-1.702-8.973-2.775-12.15,0.108
				c-3.801,3.449-2.059,9.777,0.678,14.119c9.285,14.729,25.812,22.983,38.672,34.721c9.496,8.667,17.085,19.412,22.08,31.259
				c5.049,11.975,9.546,27.079,22.19,30.08c7.511,1.783,15.424-1.837,21.044-7.129c8.859-8.343,13.331-20.695,13.548-32.862
				c0.214-11.987-2.265-33.224-16.032-36.401c-7.901-1.824-17.76,1.205-26.15-0.085C747.248,163.801,738.293,160.742,730.212,156.12
				z"/>
			<path style="fill:#FF2A66;" d="M267.053,44.051c-2.394,5.765-4.992,12.778-1.289,17.804c3.04,4.127,9.379,4.693,13.926,2.327
				c4.546-2.366,7.531-6.952,9.524-11.674c7.353-17.422,3.781-38.277,12.53-55.041c4.944-9.474,13.895-18.573,11.552-29
				c-1.239-5.511-5.623-9.91-10.663-12.46c-5.041-2.55-10.72-3.505-16.32-4.252c-21.854-2.914-32.468,14.107-22.503,33.05
				C274.849,5.788,276.52,21.255,267.053,44.051z"/>
			<path style="fill:#FF2A66;" d="M743.715,65.893c-20.01-18.799-46.843-28.752-73.743-34.249
				c-26.9-5.497-54.456-6.993-81.546-11.459c-15.394-2.538-31.276-6.343-43.24-16.355c-11.965-10.013-18.663-27.893-11.495-41.751
				c5.324-10.294,16.964-16.075,28.468-17.472c11.504-1.397,23.096,0.894,34.493,2.994c26.584,4.897,53.584,8.819,80.568,7.217
				c26.07-1.548,54.08-7.86,76.994,4.671c9.655,5.28,17.39,13.511,23.912,22.375c21.319,28.974,30.926,66.317,26.237,101.982
				c-0.746,5.674-2.109,11.785-6.519,15.432C782.676,111.823,752.713,74.345,743.715,65.893z"/>
			<path style="fill:#E27100;" d="M773.226,376.213c-11.441-8.477-23.162-17.255-30.633-29.377
				c-8.721-14.149-10.71-31.254-14.016-47.543c-7.575-37.319-24.13-74.295-53.786-98.182c-4.491-3.617-10.401-7.064-15.712-4.818
				c-2.797,1.182-4.772,3.756-6.155,6.46c-5.257,10.274-3.389,22.936,1.489,33.395c4.877,10.459,12.443,19.381,18.978,28.893
				c16.366,23.819,26.505,51.729,44.823,74.082c5.6,6.833,11.958,13.138,16.39,20.781c11.029,19.018,8.604,43.405,18.713,62.928
				c2.442,4.716,5.984,9.356,11.098,10.787c6.418,1.795,12.944-1.962,18.553-5.562c7.352-4.719,30.127-19.428,25.356-30.749
				c-1.831-4.344-12.51-6.49-16.31-8.51C785.358,385.258,779.268,380.69,773.226,376.213z"/>
			<path style="fill:#E27100;" d="M641.515,67.672c-10.162-3.956-21.029-5.695-31.806-7.365c-4.906-0.76-10.035-1.496-14.747,0.069
				c-1.175,0.39-2.347,0.952-3.121,1.919c-1.35,1.687-1.115,4.258,0.08,6.057c1.196,1.799,3.155,2.946,5.152,3.772
				c7.232,2.99,15.47,2.481,22.897,4.948c5.448,1.809,10.316,5.174,15.867,6.64c4.63,1.223,9.664,1.106,13.937,3.27
				c5.623,2.848,9.35,9.366,15.58,10.323c1.233,0.189,2.564,0.119,3.625-0.537C680.035,89.939,646.452,69.594,641.515,67.672z"/>
			<path style="fill:#FF2A66;" d="M481.302,62.767c-17.863-0.095-33.086-12.988-50.539-16.794
				c-13.426-2.927-28.005-0.112-39.375,7.604c-6.944,4.711-12.877,11.223-20.805,13.972c-7.766,2.693-16.299,1.368-24.457,2.376
				c-10.526,1.3-20.493,6.685-27.35,14.776c-3.841,4.533-6.793,10.159-6.702,16.099c0.018,1.173,0.192,2.432,0.985,3.296
				c1.008,1.099,2.678,1.221,4.169,1.169c17.319-0.604,31.099-13.974,46.601-21.722c11.516-5.756,24.502-8.491,37.369-8.047
				c14.939,0.515,29.384,5.192,44.117,7.72c14.733,2.529,30.801,2.663,43.572-5.105c3.574-2.174,7.132-5.027,11.315-4.974
				c1.532,0.019,3.04,0.441,4.572,0.448c7.279,0.033,12.449-11.487,5.091-15.197c-3.552-1.791-9.266,1.034-12.727,1.902
				C491.938,61.596,486.696,62.796,481.302,62.767z"/>
			<path style="fill:#02004F;" d="M275.792,174.215c-0.257,18.244,4.084,36.535,12.512,52.718
				c2.641,5.071,5.531,11.738,1.641,15.928c-4.168,4.49-13.533,2.471-15.779,8.171c-0.981,2.49,0.07,5.277,1.169,7.718
				c7.499,16.642,18.853,32.901,35.866,39.516c4.43,1.722,9.264,2.739,13.949,1.939c4.685-0.799,9.185-3.647,11.112-7.992
				c2.827-6.373-0.372-13.689-3.742-19.793c-12.955-23.467-29.304-45.211-39.095-70.165c-3.151-8.031-5.623-16.603-4.76-25.186
				c0.574-5.707,11.375-34.358,1.051-36.032C278.785,139.266,275.879,168.026,275.792,174.215z"/>
			<path style="fill:#FF2A66;" d="M252.911,191.709c1.987,9.321,5.974,18.171,7.382,27.597c0.246,1.644,0.389,3.422-0.413,4.878
				c-1.429,2.592-5.223,2.876-7.884,1.579c-4.831-2.355-6.909-8.022-8.372-13.194c-2.648-9.356-4.761-18.949-4.868-28.672
				c-0.108-9.722,1.89-19.64,6.973-27.928c5.471-8.922,14.911,1.923,11.878,9.253c-1.478,3.572-4.135,5.848-5.088,9.883
				C251.248,180.476,251.773,186.372,252.911,191.709z"/>
			<path style="fill:#FF2A66;" d="M191.086,36.066c-11.76-3.188-24.629-3.348-35.855,1.389c-6.734,2.842-12.787,7.376-19.883,9.131
				c-10.831,2.679-21.995-1.509-32.86-4.044c-21.786-5.083-44.478-3.518-66.843-4.027c-9.802-0.223-19.73-0.84-29.311,1.246
				s-18.995,7.347-23.524,16.044c-0.735,1.41-1.298,3.232-0.336,4.498c1.198,1.577,3.652,1.024,5.514,0.348
				c10.153-3.685,20.651-6.421,31.311-8.161c2.883-0.471,5.956-0.847,8.628,0.333c2.672,1.18,4.608,4.506,3.267,7.101
				c-1.015,1.966-3.381,2.752-5.534,3.263c-10.247,2.432-21.426,2.93-30.028,9.008c-0.891,0.63-1.775,1.353-2.219,2.35
				c-1.148,2.577,1.163,5.409,3.627,6.782c6.118,3.409,13.639,2.695,20.53,1.447c11.452-2.074,22.684-5.359,33.45-9.781
				c9.25-3.799,18.29-8.477,28.146-10.166c15.173-2.6,31.126,2.098,45.984-1.933c14.348-3.892,26.405-15.626,41.266-16.035
				c8.224-0.226,16.065,3.115,23.734,6.094c11.913,4.627,24.312,9.025,36.828,11.68C232.573,48.767,200.083,38.505,191.086,36.066z"
				/>
			<path style="fill:#FFAD0D;" d="M701.089,506.879c2.382-8.591,4.231-17.329,5.533-26.148c1.351-9.146,2.091-18.63-0.461-27.516
				c-2.929-10.197-9.909-18.677-16.957-26.606c-20.446-23-43.656-45.206-53.548-74.347c-4.527-13.336-6.013-27.534-10.257-40.963
				c-3.286-10.398-8.223-20.273-14.568-29.143c-4.68-6.542-12.544-13.157-19.895-9.892c-3.134,1.392-5.326,4.391-6.508,7.611
				c-3.212,8.751,0.249,18.449,4.247,26.87c15.12,31.846,38.095,59.178,57.515,88.599c14.002,21.212,26.594,45.18,25.172,70.557
				c-0.45,8.036-2.38,16.117-6.609,22.965c-4.563,7.389-11.647,13.14-15.253,21.04c-3.607,7.9-1.52,19.658,6.922,21.692
				c3.24,0.781,6.632-0.078,9.817-1.058C679.865,526.345,696.936,521.858,701.089,506.879z"/>
			<path style="fill:#02004F;" d="M590.096,197.256c-5.707-15.935-12.08-32-22.883-45.031
				c-10.803-13.031-26.854-22.75-43.764-22.014c-5.094,0.222-10.157,1.37-15.245,1.038c-5.088-0.332-10.495-2.56-12.719-7.148
				c-2.547-5.256,0.12-11.911,4.753-15.467c4.633-3.556,10.703-4.613,16.535-4.907c25.479-1.283,51.263,10.73,66.671,31.063
				c7.476,9.865,12.51,21.33,17.245,32.765c7.391,17.85,14.256,36.029,18.108,54.961c2.047,10.062-0.371,29.474-12.027,14.408
				C598.309,225.989,594.692,210.088,590.096,197.256z"/>
			<path style="fill:#02004F;" d="M379.328,191.58c-3.306,4.641-6.056,9.856-6.748,15.512c-1.09,8.916,3.019,17.845,2.025,26.772
				c-0.105,0.941-0.292,1.931-0.923,2.636c-0.691,0.773-1.773,1.048-2.797,1.213c-10.141,1.627-20.388-4.1-26.717-12.189
				c-6.329-8.089-9.406-18.211-11.799-28.199c-3.961-16.532-6.31-34.409,0.099-50.154c3.298-8.103,8.751-15.161,14.762-21.517
				c8.508-8.997,18.52-16.946,30.244-20.929c5.509-1.871,11.572-2.821,17.128-1.097c5.556,1.724,10.392,6.646,10.611,12.46
				c0.142,3.772-1.582,7.584-0.633,11.237c1.581,6.08,9.185,7.987,15.457,8.348c7.051,0.406,17.508,1.342,17.92,10.441
				c0.381,8.41-6.941,9.174-12.862,11.455C407.986,164.161,390.01,176.582,379.328,191.58z"/>
			<path style="fill:#FFAD0D;" d="M370.223,339.095c-10.319,2.41-21.223,0.267-31.117-3.529
				c-9.894-3.795-19.084-9.193-28.711-13.622c-6.064-2.79-13.367-5.147-19.155-1.82c-1.528,0.878-2.884,2.181-3.459,3.847
				c-1.069,3.092,0.878,6.559,3.594,8.383s6.039,2.429,9.224,3.181c8.957,2.114,17.563,5.71,25.362,10.596
				c10.11,6.334,18.741,14.724,28.095,22.129c9.354,7.405,19.869,14.003,31.666,15.779c11.798,1.776,25.09-2.257,31.526-12.303
				c5.372-8.384,5.137-19.171,3.337-28.966c-1.393-7.581-15.027-52.761-25.26-43.017c-5.646,5.376-1.601,18.374-5.515,25.343
				C385.777,332.277,378.136,337.247,370.223,339.095z"/>
			<path style="fill:#FFAD0D;" d="M77.643,119.217c10.741-0.53,21.783,1.886,32.116-1.092c20.419-5.885,30.586-30.266,50.409-37.922
				c9.31-3.596,20.174-2.925,28.972,1.788c8.797,4.714,15.373,13.388,17.536,23.131c2.367,10.663-0.371,21.691-1.71,32.531
				c-2.229,18.046-0.505,36.57,5.014,53.895c4.149,13.023,10.394,25.331,14.086,38.492c2.952,10.523,4.277,21.598,8.934,31.485
				c5.884,12.493,17.186,24.082,14.985,37.715c-0.225,1.395-0.65,2.858-1.728,3.773c-2.928,2.484-7.138-0.937-9.216-4.166
				c-8.003-12.436-12.892-26.572-17.707-40.555c-8.484-24.636-16.967-49.272-25.451-73.908c-2.199-6.385-4.443-12.861-8.29-18.411
				c-3.486-5.03-8.177-9.121-13.19-12.631c-22.776-15.943-52.373-20.129-79.819-15.693c-27.445,4.435-53.03,16.825-76.564,31.626
				c-4.62,2.906-9.261,5.948-14.495,7.495c-5.234,1.547-11.271,1.392-15.714-1.778c-2.565-1.83-4.412-4.52-5.738-7.379
				c-4.309-9.293-3.06-21.277,3.146-29.466c7.182-9.478,14.997-3.409,24.991-3.004C32.44,136.125,53.666,120.4,77.643,119.217z"/>
			<path style="fill:#02004F;" d="M151.819,101.564c-3.634,2.634-7.71,6.327-6.789,10.719c0.594,2.831,3.181,4.823,5.847,5.946
				c2.666,1.123,5.571,1.645,8.152,2.95c5.547,2.805,8.704,8.677,11.852,14.037c3.148,5.36,7.186,10.951,13.237,12.376
				c0.649,0.153,1.329,0.253,1.98,0.106c1.298-0.293,2.181-1.483,2.816-2.652c2.985-5.506,3.002-12.166,1.908-18.332
				c-1.462-8.241-4.79-16.145-9.663-22.95c-2.474-3.454-5.46-6.716-9.338-8.451C163.989,91.811,157.796,97.231,151.819,101.564z"/>
			<path style="fill:#02004F;" d="M1.501,149.796c3.135-1.788,6.09-4.118,9.631-4.812c2.183-0.428,4.786-0.015,6.011,1.843
				c1.538,2.333,0.109,5.474-1.667,7.631c-4.218,5.127-10.209,8.412-16.047,11.574c-1.525,0.826-3.095,1.667-4.815,1.885
				c-1.72,0.219-3.65-0.321-4.612-1.765c-0.734-1.101-0.788-2.508-0.766-3.831C-10.562,150.543-6.77,154.512,1.501,149.796z"/>
			<path style="fill:#02004F;" d="M400.468,368.71c-12.536,4.78-24.002-3.797-28.677-15.847c-0.345-0.888-0.645-1.886-0.301-2.774
				c0.533-1.373,2.289-1.769,3.761-1.717c2.022,0.072,4.025,0.614,5.806,1.573c1.771,0.952,3.334,2.312,5.233,2.975
				c8.027,2.802,10.77-11.883,16.963-7.716c1.002,0.674,1.562,1.825,2.025,2.94c1.193,2.871,2.053,5.88,2.557,8.947
				c0.355,2.158,0.515,4.465-0.414,6.444C406.162,366.22,403.238,367.654,400.468,368.71z"/>
			<path style="fill:#FF2A66;" d="M342.016,176.416c-0.815,11.351,2.39,22.95,8.917,32.272c0.862,1.231,2.244,2.57,3.641,2.018
				c0.734-0.29,1.179-1.029,1.53-1.736c3.691-7.448,2.999-16.904,8.279-23.325c2.053-2.496,4.825-4.271,7.41-6.212
				c2.585-1.94,5.107-4.2,6.303-7.203c1.197-3.002,0.675-6.905-1.963-8.773c-1.585-1.123-3.618-1.347-5.43-2.046
				c-3.505-1.351-6.178-4.66-6.763-8.371c-0.332-2.106-0.115-4.501-1.526-6.1C352.596,135.823,342.414,170.862,342.016,176.416z"/>
			<path style="fill:#FF2A66;" d="M516.738,123.073c1.317-0.199,2.654-0.637,3.6-1.575c0.946-0.938,1.396-2.464,0.791-3.651
				c-0.277-0.544-0.739-0.968-1.191-1.379c-2.77-2.518-9.501-7.446-12.483-2.438C504.056,119.739,512.272,123.747,516.738,123.073z"
				/>
			<path style="fill:#FF2A66;" d="M743.93,86.896c-10.583-10.353-21.671-20.191-33.209-29.468
				c-4.115-3.308-8.341-6.578-13.166-8.725c-3.208-1.428-7.761-1.932-9.52,1.107c-0.965,1.668-0.625,3.776-0.021,5.606
				c2.811,8.518,10.25,14.49,16.801,20.616c9.967,9.32,18.577,20.031,26.099,31.415c1.972,2.985,3.885,6.044,5.138,9.395
				c1.797,4.805,2.166,10.002,3.023,15.06s2.336,10.252,5.85,13.99c3.514,3.738,9.552,5.513,13.932,2.843
				c2.714-1.654,4.349-4.694,5.009-7.803c0.661-3.109,0.467-6.328,0.27-9.501c-0.531-8.566-0.37-19.205-4.74-26.906
				C755.698,98.004,749.224,92.075,743.93,86.896z"/>
			<path style="fill:#FF2A66;" d="M645.412,106.559c-3.322,0.944-5.942,3.704-7.251,6.899c-1.31,3.195-1.427,6.778-0.921,10.194
				c1,6.746,4.427,13.106,9.512,17.651c4.587,4.099,10.335,6.663,15.226,10.394c4.442,3.389,8.103,7.682,11.594,12.044
				c0.625,0.781,1.478,1.653,2.452,1.422c0.497-0.118,0.882-0.51,1.187-0.92c3.047-4.087,0.474-9.911-2.608-13.972
				c-5.324-7.013-12.28-13.265-14.62-21.753c-0.388-1.409-0.638-2.91-0.268-4.324c1.348-5.154,5.395-7.516,0.555-12.093
				C656.469,108.507,650.833,105.019,645.412,106.559z"/>
			<path style="fill:#FF2A66;" d="M752.482,245.406c-8.039-16.564-19.034-31.486-29.965-46.302
				c-1.554-2.107-3.141-4.246-5.243-5.808c-2.138,5.069-0.212,10.894,2.199,15.839c6.078,12.467,15.282,23.534,18.982,36.9
				c1.875,6.773,2.247,13.866,3.635,20.756c1.388,6.89,4.005,13.885,9.329,18.473c1.935,1.667,4.632,3.01,6.977,1.999
				c2.15-0.927,3.088-3.418,3.712-5.675C766.12,267.091,758.519,257.845,752.482,245.406z"/>
			<path style="fill:#FF2A66;" d="M531.847,11.816c7.077,5.373,15.403,8.87,23.858,11.603c12.373,4,25.237,6.481,38.211,7.368
				c4.613,0.316,9.87,0.743,12.677,4.417c0.521,0.683,0.94,1.498,0.907,2.357c-0.098,2.578-3.596,3.25-6.172,3.1
				c-23.124-1.34-46.061-5.864-67.963-13.405c-20.4-7.023-40.958-16.811-62.433-14.74c-13.199,1.273-25.566,6.988-38.614,9.352
				c-19.849,3.596-40.231-0.702-59.712-5.938c-8.942-2.403-18.646-5.609-23.452-13.523c-4.243-6.988-3.416-16.241,0.505-23.415
				c3.921-7.174,10.506-12.538,17.491-16.787c27.497-16.727,61.832-18.123,93.642-13.223c6.27,0.966,12.578,2.178,18.345,4.821
				c5.312,2.434,10.007,6.008,14.653,9.552c8.346,6.367,17.37,13.358,21.764,23.202c1.876,4.202,2.537,8.588,4.895,12.637
				C523.32,4.125,527.315,8.375,531.847,11.816z"/>
			<path style="fill:#FFAD0D;" d="M740.845,30.87c-11.884-1.859-24.322,3.211-35.902-0.048c-5.069-1.427-10.325-5.982-8.903-11.052
				c0.624-2.226,2.417-3.923,4.283-5.288c8.725-6.382,21.156-8.69,26.271-18.213c3.652-6.798,2.045-15.673-2.845-21.642
				s-12.537-9.229-20.212-10.029c-7.675-0.8-15.419,0.646-22.839,2.764c-5.771,1.648-11.616,3.822-15.911,8.013
				c-4.296,4.191-6.669,10.857-4.314,16.377c1.171,2.745,3.344,4.925,4.916,7.462c1.571,2.538,2.497,5.888,0.968,8.452
				c-0.813,1.362-2.194,2.279-3.587,3.038c-12.13,6.606-28.722,3.462-37.595-7.123c-10.4-12.407-9.022-31.635-0.643-45.488
				c6.777-11.204,17.43-19.748,29.242-25.4c11.812-5.652,24.773-8.561,37.772-10.136c15.48-1.876,31.663-1.826,46.075,4.126
				c13.107,5.414,23.995,15.503,31.643,27.445c7.648,11.942,12.196,25.676,14.666,39.641c3.606,20.393,2.689,42.256-6.873,60.626
				c-5.171,9.934-12.052-4.982-14.34-8.668C757.915,37.989,749.912,32.289,740.845,30.87z"/>
			<path style="fill:#FFAD0D;" d="M741.085,105.506c0.352,2.496,1.336,4.901,2.837,6.926c1.473,1.988,3.418,3.598,4.818,5.638
				c3.291,4.794,3.293,11.506,7.333,15.688c5.825,6.03,9.36,0.112,8.193-5.684c-0.81-4.021-2.025-8.435-3.945-12.084
				C757.985,111.55,739.273,92.632,741.085,105.506z"/>
			<path style="fill:#FFAD0D;" d="M434.33,6.523c-1.253,1.268-2.981,1.943-4.694,2.437c-13.233,3.814-28.665-2.236-35.779-14.029
				c-3.044-5.045-4.579-11.567-1.888-16.809c2.963-5.772,9.888-8.134,16.229-9.505c1.895-0.41,3.858-0.779,5.761-0.402
				c8.692,1.723,12.519,9.676,15.635,16.833C432.108-9.18,440.29,0.493,434.33,6.523z"/>
			<path style="fill:#FFAD0D;" d="M284.045,39.884c0.186-3.113-0.035-6.402-1.684-9.05c-0.97-1.556-1.359-0.167-1.845,0.752
				c-0.643,1.214-1.505,2.344-2.439,3.348c-1.656,1.779-3.696,3.22-5.053,5.236c-1.266,1.88-1.851,4.147-2.063,6.403
				c-0.165,1.76-0.085,3.646,0.878,5.129c1.288,1.983,4.041,2.764,6.275,1.989C283.175,51.939,283.778,44.337,284.045,39.884z"/>
		</g>
	</g>
</g>
</svg>
