<?xml version="1.0" encoding="utf-8"?>
<!-- Generator: Adobe Illustrator 27.5.0, SVG Export Plug-In . SVG Version: 6.00 Build 0)  -->
<svg version="1.1" xmlns="http://www.w3.org/2000/svg" xmlns:xlink="http://www.w3.org/1999/xlink" x="0px" y="0px"
	 viewBox="0 0 750 500" style="enable-background:new 0 0 750 500;" xml:space="preserve">
<g id="BACKGROUND">
	<rect x="0" style="fill:#FAE8C0;" width="750" height="500"/>
</g>
<g id="OBJECTS">
	<g>
		<g>
			<path style="fill:#EA7E24;" d="M750,462.103c-12.147-4.51-24.576-5.964-37.434-4.639c-15.239,1.571-29.179,7.228-42.539,14.2
				c-20.841,10.876-43.292,14.813-66.333,15.702c-15.461,0.597-29.767-3.175-41.096-15.009
				c-10.575-11.047-21.57-21.697-32.452-32.447c-8.07-7.972-15.862-16.289-24.477-23.633
				c-16.652-14.198-36.036-21.177-57.695-15.513c-13.935,3.644-27.29,9.743-40.563,15.525c-4.027,1.754-7.49,5.696-10.218,9.372
				c-8.941,12.05-7.02,23.026,5.137,31.731c8.424,6.033,17.479,11.311,25.293,18.038c8.967,7.72,17.49,16.01,25.685,24.571h13.216
				c-4.551-6.008-10.007-11.441-15.694-16.706c-9.234-8.549-18.713-16.84-27.754-25.586c-3.497-3.383-6.616-7.407-8.985-11.652
				c-5.232-9.372-2.455-19.169,7.244-23.754c16.644-7.869,34.091-11.302,52.491-6.909c14.991,3.58,26.79,12.456,37.365,22.977
				c13.643,13.573,27.436,27.092,39.938,41.684c10.799,12.604,23.996,16.95,39.531,15.428c30.461-2.983,60.73-7.098,88.626-21.023
				c23.329-11.645,46.948-12.355,70.715-6.017V462.103z"/>
			<path style="fill:#D85E2B;" d="M380.189,469.094c-5.525-11.655-14.454-18.379-26.307-22.05
				c-4.002-1.239-7.969-2.617-12.022-3.661c-30.749-7.92-61.497-15.843-92.295-23.567c-4.492-1.127-9.279-1.856-13.88-1.654
				c-33.248,1.461-62.671,13.004-87.111,35.588c-9.159,8.464-16.325,19.058-24.609,28.498c-4.778,5.445-7.932,11.405-9.983,17.752
				h12.119c3.026-6.382,7.283-12.143,11.38-18.049c21.436-30.896,51.222-48.626,87.781-55.138c8.088-1.441,16.952-1.361,24.99,0.294
				c21.928,4.518,43.634,10.136,65.374,15.536c20.64,5.127,38.639,14.648,52.076,31.749c3.025,3.85,6.69,7.29,10.449,10.459
				c5.98,5.043,11.949,10.099,17.925,15.148h10.403C396.117,491.116,386.201,481.777,380.189,469.094z"/>
		</g>
		<g>
			<path style="fill:#E4AE42;" d="M692.096,12.935c-4.173,4.815-9.069,9.07-13.99,13.153c-5.692,4.723-12.17,8.546-17.609,13.521
				c-11.63,10.64-23.405,21.23-33.988,32.869c-8.612,9.471-6.259,17.346,5.586,22.597c6.046,2.68,12.479,4.761,18.942,6.185
				c35.883,7.903,66.38-1.208,90.728-29.287c2.902-3.347,5.638-6.781,8.236-10.287V20.11c-5.706,10.243-11.384,20.502-17.325,30.607
				c-5.826,9.909-13.321,18.577-23.746,23.805c-4.443,2.228-9.758,3.457-14.739,3.669c-4.836,0.205-6.624-3.203-4.468-7.584
				c1.715-3.484,4.138-6.73,6.731-9.652c7.044-7.932,14.52-15.483,21.509-23.461C728.177,25.837,731.821,13.162,729.494,0h-29.814
				C698.195,4.453,695.674,8.807,692.096,12.935z"/>
			<path style="fill:#E4AE42;" d="M750,148.257c-6.245,0.945-12.529,1.689-18.804,2.383c-20.072,2.22-40.055,4.608-60.435,2.895
				c-31.94-2.686-61.066-12.829-88.143-29.626c-15.208-9.434-24.396-22.596-26.782-40.48c-0.945-7.084-2.588-14.072-3.771-21.128
				c-2.708-16.155-3.954-32.354,0.143-48.46c1.225-4.815,2.82-9.427,4.715-13.839h-9.222c-1.654,3.584-3.147,7.276-4.429,11.091
				c-7.271,21.638-8.613,44.013-7.344,66.482c1.227,21.723,10.81,39.294,29.917,50.689c6.967,4.155,14.338,7.717,21.768,11.002
				c30.74,13.596,62.676,22.044,96.572,21.889c22.183-0.102,44.043-2.992,65.816-6.676V148.257z"/>
		</g>
		<path style="fill:#E4AE42;" d="M72.76,1.96c2.89,22.655-1.958,44.159-14.338,63.579C46.037,84.966,27.177,94.323,5.228,98.134
			C3.485,98.437,1.743,98.74,0,99.044v4.809c3.339-0.588,6.678-1.178,10.018-1.759c40.515-7.053,62.226-33.387,68.151-70.747
			C79.797,21.08,79.795,10.556,79.598,0h-7.122C72.568,0.654,72.676,1.305,72.76,1.96z"/>
		<path style="fill:#EA7E24;" d="M126.015,0h-12.382c-0.199,2.766-0.291,5.594-0.261,8.493c0.148,14.245-1.447,28.55-2.931,42.756
			c-1.363,13.043-3.769,26.021-12.226,36.722c-19.695,24.923-44.711,39.572-77.242,40.249c-6.992,0.145-13.984,0.371-20.974,0.64
			v9.863c7.315,0.718,14.658,1.702,22.029,2.965c20.605,3.53,40.745,2.912,60.489-4.554c5.762-2.179,11.775-3.682,17.612-5.674
			c10.533-3.594,20.279-2.272,29.719,3.672c5.19,3.268,10.685,6.313,16.43,8.388c14.873,5.373,30.134-0.386,36.178-14.244
			c2.774-6.36,4.14-13.749,4.333-20.721c0.302-10.88-5.782-15.632-16.594-14.541c-3.188,0.322-6.34,0.996-9.524,1.373
			c-14.2,1.681-21.144-2.507-26.149-16.02c-1.537-4.149-2.797-8.439-3.741-12.762c-4.71-21.569-5.834-43.386-4.846-65.422
			C125.952,0.785,125.992,0.397,126.015,0z"/>
		<path style="fill:#D05E52;" d="M91.135,0c-0.503,14.902-1.744,29.738-5.724,44.266c-10.587,38.653-38.205,61.313-78.095,66.235
			c-2.44,0.301-4.878,0.617-7.317,0.925v7.814c4.61-0.356,9.221-0.701,13.833-1.041c47.638-3.515,80.95-36.238,85.594-83.531
			c1.134-11.549,2.092-23.116,3.182-34.669H91.135z"/>
		<path style="fill:#EA7E24;" d="M453.309,0c-0.207,2.395-0.377,4.805-0.469,7.248c-0.308,8.179-2.438,16.578-5.285,24.305
			c-4.159,11.288-11.193,13.375-21.601,7.56c-12.204-6.819-22.457-15.963-30.955-27.039c-2.94-3.831-5.27-7.838-6.915-12.074
			h-24.176c2.577,8.968,7.923,16.809,15.818,23.699c18.57,16.206,37.842,31.61,56.827,47.34c0.945,0.783,1.985,1.487,3.07,2.058
			c5.947,3.131,10.284,2.104,13.762-3.755c1.994-3.359,3.514-7.054,4.839-10.743c6.167-17.173,7.728-34.954,7.455-53.106
			c-0.028-1.844-0.02-3.674,0.023-5.492H453.309z"/>
		<path style="fill:#E4AE42;" d="M215.108,0c-4.221,5.383-8.234,10.943-11.989,16.727c-3.082,4.749-6.313,9.431-9.842,13.852
			c-2.751,3.445-5.784,6.785-9.186,9.568c-12.841,10.504-24.53,7.683-31.448-7.341c-4.076-8.853-6.783-20.818-7.2-32.806h-9.58
			c-0.645,10.287,0.394,20.577,2.478,30.764c1.906,9.317,4.549,18.692,8.412,27.35c4.806,10.771,13.634,14.169,25.086,11.496
			c11.916-2.781,20.762-9.977,27.498-19.85c3.323-4.871,6.453-9.952,8.997-15.261C214.445,21.744,221.923,10.257,230.756,0H215.108z
			"/>
		<path style="fill:#E4AE42;" d="M409.513,0c2.687,5.612,7.991,9.791,14.169,12.732c6.114,2.91,10.534,0.884,12.839-5.509
			c0.832-2.306,1.206-4.771,1.637-7.223H409.513z"/>
		<path style="fill:#D05E52;" d="M495.129,0c0.394,1.478,0.86,2.949,1.419,4.411c4.309,11.272,11.743,12.9,19.948,4.24
			c2.359-2.49,4.479-5.245,6.439-8.065c0.135-0.195,0.271-0.391,0.407-0.586H495.129z"/>
		<path style="fill:#E4AE42;" d="M641.282,218.916c31.535-5.407,62.995-11.355,94.66-15.859c4.631-0.659,9.331-1.001,14.058-1.127
			v-2.901c-13.134,0.985-26.19,3.235-39.284,5.093c-23.127,3.282-46.387,5.624-69.589,8.385c-13.173,1.567-26.935,1.33-38.352,9.353
			c-8.424,5.92-17.561,8.624-27.604,9.382c-4.659,0.352-9.353,0.945-13.896,2.008c-14.758,3.452-29.671,5.126-44.796,4.15
			c-12.015-0.775-19.952,4.022-25.323,15.023c-10.188,20.869-24.822,38.44-42.296,53.735c-14.498,12.69-31.268,21.509-48.798,28.96
			c-16.98,7.217-32.663,16.214-45.713,29.486c-2.734,2.78-6.068,5.083-9.417,7.129c-14.339,8.757-28.707,8.571-40.89-0.53
			c-12.379-9.247-21.613-21.044-26.498-35.724c-4.742-14.251-8.872-28.714-12.958-43.172c-7.555-26.729-3.932-51.585,12.415-74.497
			c5.278-7.398,9.796-15.419,13.919-23.532c3.662-7.204,7.003-14.728,9.215-22.474c3.277-11.472-2.143-21.035-13.635-23.983
			c-5.503-1.412-11.728-1.457-17.376-0.555c-11.722,1.871-19.334,10.235-26.439,18.941c-7.945,9.736-14.969,20.434-24.014,29.006
			c-10.132,9.601-21.744,17.775-33.302,25.712c-28.233,19.389-46.863,59.307-26.026,98.448c2.511,4.717,4.169,10.057,5.289,15.307
			c1.959,9.179-3.36,18.419-11.682,21.564c-8.535,3.226-17.035,0.277-21.605-9.052c-2.845-5.809-4.519-12.581-5.043-19.057
			c-1.267-15.673-4.678-30.488-16.011-41.939c-11.776-11.898-23.53-24.091-36.787-34.198c-22.142-16.88-47.1-27.321-73.505-34.262
			v5.022c38.497,9.127,71.646,27.141,95.795,59.913c9.56,12.973,16.052,27.02,18.182,43.109c1.552,11.724,3.352,23.448,9.257,34.052
			c5.223,9.379,13.005,13.767,23.778,12.975c27.407-2.016,41.216-23.868,30.963-49.126c-2.227-5.485-4.814-10.838-6.776-16.414
			c-2.288-6.501-4.374-13.105-6.02-19.795c-5.821-23.655,0.146-44.441,19.664-58.694c23.68-17.293,45.823-35.678,63.749-59.085
			c3.973-5.188,10.431-9.342,16.609-11.808c15.565-6.213,27.651,4.347,24.309,20.689c-1.028,5.026-2.632,10.093-4.917,14.671
			c-4.617,9.25-9.434,18.461-14.969,27.181c-12.515,19.718-16.006,41.066-12.699,63.799c1.915,13.163,4.778,26.217,6.088,39.432
			c2.776,28.012,19.981,45.293,42.603,58.494c4.455,2.6,10.27,3.474,15.563,3.928c16.618,1.426,30.21-6.041,42.44-16.173
			c12.587-10.428,25.472-20.379,40.308-27.379c26.17-12.349,49.029-29.282,70.226-48.81c7.392-6.81,15.579-13.017,24.197-18.176
			c13.342-7.988,24.372-3.661,30.057,10.924c1.599,4.101,2.943,8.496,3.299,12.846c0.722,8.822,1.359,17.747,0.801,26.552
			c-0.734,11.566,1.444,22.177,7.852,31.694c10.324,15.331,20.44,30.86,31.768,45.434c5.631,7.244,13.255,13.27,20.858,18.589
			c18.465,12.918,36.334,7.43,49.87-6.667c8.198-8.538,10.332-18.589,4.952-29.255c-3.643-7.223-7.909-14.29-12.884-20.656
			c-23.095-29.556-31.461-64.295-35.994-100.398c-1.229-9.786,2.066-18.298,8.624-25.854
			C616.637,228.281,627.55,221.27,641.282,218.916z M625.186,369.139c3.533,5.277,6.72,11.024,8.783,16.998
			c5.961,17.262-5.855,32.802-24.075,32.324c-10.226-0.219-18.712-4.783-25.643-11.702c-14.813-14.788-26.678-31.851-33.854-51.519
			c-2.493-6.832-2.615-15.133-1.652-22.479c1.465-11.177,4.019-22.381,7.675-33.037c2.137-6.227,6.563-12.17,11.31-16.881
			c6.417-6.368,12.458-5.224,16.841,2.708c4.032,7.296,7.465,15.019,10.294,22.867C602.597,329.873,612.483,350.165,625.186,369.139
			z"/>
		<path style="fill:#E4AE42;" d="M750,179.059c-15.638,2.067-31.278,4.125-46.925,6.125c-17.431,2.228-34.976,3.051-52.293-0.248
			c-25.853-4.925-51.641-10.26-77.298-16.115c-15.955-3.641-30.096-2.745-42.339,9.648c-8.282,8.383-18.947,9.631-29.543,5.602
			c-7.736-2.942-15.623-6.659-21.969-11.836c-12.589-10.27-24.228-21.713-36.135-32.806c-13.56-12.632-27.367-24.944-43.601-34.127
			c-13.913-7.87-28.564-11.205-44.778-8.873c-14.105,2.029-28.451,3.228-42.69,3.227c-12.507-0.001-24.993-2.465-37.524-3.327
			c-25.062-1.724-38.846,5.972-48.701,24.49c-4.865,9.141-9.761,18.267-14.582,27.431c-9.118,17.333-22.752,29.267-41.174,36.309
			c-17.952,6.863-35.572,14.606-53.252,22.16c-9.612,4.107-19.393,5.443-29.638,3.233c-30.26-6.529-57.733-19.527-84.126-35.363
			c-1.13-0.678-2.276-1.339-3.432-1.987v16.258c26.15,11.147,52.589,21.647,78.425,33.471c23.541,10.773,44.155,7.455,64.322-7.725
			c9.008-6.78,18.784-12.973,29.048-17.565c22.617-10.12,39.014-26.131,50.813-47.638c4.479-8.165,10.052-15.82,15.818-23.166
			c6.603-8.411,15.444-14.356,26.222-15.142c10.232-0.745,20.66-0.297,30.89,0.733c17.945,1.807,35.915,4.104,53.768,0.552
			c27.424-5.456,51.393,1.167,72.152,19.387c12.966,11.38,25.483,23.282,37.958,35.204c13.037,12.459,27.573,22.508,44.997,27.498
			c6.721,1.925,13.992,2.595,21.018,2.625c8.698,0.037,14.932-5.818,21.13-11.144c8.632-7.417,18.726-9.852,29.702-8.043
			c14.075,2.32,28.09,5.034,42.079,7.836c26.463,5.3,53.032,8.496,80.019,4.788c17.219-2.366,34.39-5.184,51.639-7.265V179.059z"/>
		<path style="fill:#D85E2B;" d="M266.357,459.617c-22.888-8.535-44.367-5.419-63.413,9.654
			c-7.621,6.031-14.894,13.316-20.064,21.464c-1.943,3.062-3.865,6.148-5.724,9.265h13.682c7.127-14.316,17.438-25.927,33.236-32.44
			c7.1-2.927,14.274-3.731,21.614-1.205c7.934,2.731,9.723,8.791,3.785,14.621c-4.35,4.27-9.516,7.773-14.575,11.245
			c-3.544,2.432-6.909,5.038-10.13,7.78h21.239c1.013-0.713,2.036-1.419,3.083-2.112c3.497-2.315,7.151-4.393,10.634-6.729
			c3.685-2.471,7.498-4.837,10.824-7.74C281.438,473.914,279.803,464.631,266.357,459.617z"/>
		<g>
			<path style="fill:#D85E2B;" d="M750,477.994c-20.677-6.855-41.452-6.871-62.788,1.319c-15.576,5.979-31.613,10.902-47.709,15.334
				c-7.903,2.176-15.956,3.857-24.046,5.353h20.654c21.552-5.986,43.169-11.734,64.865-17.146c15.32-3.821,33.34-2.5,49.024,5.395
				V477.994z"/>
			<path style="fill:#D85E2B;" d="M510.276,461.266c-5.835-6.64-12.465-12.629-19.079-18.528
				c-14.196-12.662-31.236-14.985-49.266-12.38c-10.96,1.584-14.496,9.068-9.333,18.844c1.255,2.377,2.79,4.709,4.625,6.658
				c5.908,6.274,11.669,12.752,18.115,18.441c8.941,7.891,17.03,16.291,23.624,25.699h63.728
				C532.037,486.963,521.388,473.91,510.276,461.266z"/>
		</g>
		<path style="fill:#D05E52;" d="M750,171.246c-12.485,2.023-24.985,3.912-37.544,5.229c-16.851,1.767-34.078,2.692-50.91,1.279
			c-25.773-2.163-50.822-8.964-75.578-16.557c-16.706-5.124-33.494-10-50.33-14.681c-8.198-2.279-15.093,0.198-20.087,7.321
			c-0.991,1.413-1.997,2.825-3.105,4.147c-5.804,6.927-11.336,8.46-19.669,5.014c-3.619-1.497-7.255-3.293-10.349-5.654
			c-8.028-6.125-15.991-12.377-23.562-19.052c-15.724-13.862-31.176-28.032-46.742-42.074
			c-20.713-18.685-44.187-26.476-72.253-20.528c-17.132,3.631-34.681,3.524-52.224,0.871c-12.383-1.873-24.982-2.98-37.501-3.147
			c-22.789-0.305-34.433,8.442-41.872,30.096c-3.52,10.245-6.265,20.789-10.327,30.807c-6.344,15.646-17.925,25.932-34.761,29.075
			c-8.911,1.663-18.07,2.75-27.118,2.758c-13.4,0.011-26.569,0.655-39.594,4.17c-15.791,4.261-31.259,3.127-46.219-3.901
			c-6.918-3.25-14.04-6.064-21.056-9.108C19.557,153.127,9.82,150.054,0,147.942v9.387c6.919,2.68,13.688,6.139,20.3,10.514
			c11.44,7.568,23.955,13.749,36.541,19.292c17.767,7.824,36.034,9.424,54.547,1.295c5.792-2.543,12.325-3.387,18.503-5.069
			c14.48-3.942,29.302-6.989,43.287-12.253c7.732-2.91,15.24-8.527,20.704-14.792c6.35-7.28,10.71-16.418,15.262-25.101
			c3.877-7.395,6.521-15.427,10.209-22.932c6.29-12.802,16.644-20.197,30.764-22.959c12.907-2.524,25.597-0.879,38.242,0.98
			c16.981,2.495,33.913,3.159,50.745-0.24c27.264-5.505,52.019-0.987,73.374,17.499c16.587,14.358,32.778,29.174,49.344,43.558
			c9.105,7.907,18.035,16.241,28.089,22.776c14.671,9.536,23.089,8.11,35.466-4.265c6.567-6.566,14.003-9.972,23.239-8.91
			c4.876,0.561,9.768,1.283,14.538,2.419c23.933,5.701,47.733,12,71.767,17.232c19.748,4.299,39.717,7.25,60.123,4.214
			c13.373-1.99,26.904-2.908,40.297-4.782c4.889-0.684,9.776-1.392,14.659-2.116V171.246z"/>
		<path style="fill:#D05E52;" d="M314.78,470.724c-11.863-9.837-24.849-16.874-39.628-20.641
			c-13.137-3.348-26.487-6.721-40.114-4.74c-26.132,3.799-47.257,16.611-62.917,37.862c-4.029,5.468-7.737,11.06-11.025,16.795
			h5.796c4.046-6.985,8.744-13.64,14.001-19.947c27.426-32.9,64.134-39.737,101.785-22.58c7.365,3.356,14.155,8.096,14.355,17.191
			c0.21,9.534-6.858,14.242-14.359,17.978c-5.345,2.662-10.936,4.829-16.348,7.357h35.996c3.713-4.998,9.471-7.157,15.88-7.133
			c8.505,0.033,17.494,0.097,25.426,2.71c4.092,1.348,8.079,2.827,11.971,4.422h9.1c-7.607-4.288-15.365-8.34-23.154-12.352
			C332.18,482.824,322.846,477.413,314.78,470.724z"/>
		<path style="fill:#EA7E24;" d="M0,306.748v39.092c0.285-0.027,0.573-0.04,0.863-0.037c4.29,0.044,6.958,2.811,6.732,6.983
			c-0.219,4.058-3.538,7.52-7.595,8.29v36.534c26.902-4.358,44.723-24.545,44.833-49.549C44.957,319.766,24.492,302.529,0,306.748z"
			/>
		<path style="fill:#E4AE42;" d="M342.224,464.91c-5.925-4.68-12.583-9.21-19.653-11.512c-18.454-6.009-37.199-11.264-56.076-15.787
			c-10.435-2.5-21.625-5.123-32.031-3.906c-43.673,5.11-74.046,29.312-94.637,66.294h11.96c6.48-12.126,15.33-23.329,26.288-33.608
			c23.922-22.439,52.657-31.684,85.948-24.323c22.321,4.936,43.987,10.89,62.982,24.216c16.157,11.335,32.135,22.956,48.67,33.714
			h10.296C371.501,488.165,356.891,476.496,342.224,464.91z"/>
		<path style="fill:#D85E2B;" d="M750,98.32c-0.8,0.749-1.596,1.502-2.407,2.243c-4.521,4.134-8.749,8.758-12.303,13.734
			c-4.126,5.776-2.617,10.36,4.331,11.361c3.393,0.489,6.884,0.731,10.379,0.742V98.32z"/>
		<path style="fill:#D85E2B;" d="M47.538,12.369c5.392,21.727-6.491,50.015-26.287,60.356C14.346,76.333,7.282,79.408,0,81.96
			v10.023c4.616-1.186,9.221-2.417,13.82-3.679c18.864-5.175,32.71-16.829,41.211-34.511C63.438,36.309,65.978,18.338,62.147,0
			H42.144C44.61,3.899,46.471,8.07,47.538,12.369z"/>
		<path style="fill:#D05E52;" d="M160.083,0c0.094,1.721,0.236,3.576,0.634,5.379c3.39,15.356,13.896,19.442,24.758,8.226
			c4.283-4.423,8.451-8.973,12.533-13.605H160.083z"/>
		<path style="fill:#EA7E24;" d="M0,62.666c9.84-3.784,17.492-10.703,23.877-19.206c9.114-12.136,12.252-25.521,7.52-41.061
			C31.079,1.676,30.759,0.859,30.419,0H0V62.666z"/>
		<path style="fill:#E4AE42;" d="M45.304,453.06c6.93-7.903,14.383-15.037,23.955-18.789c3.902-1.53,7.817-2.217,10.596,0.682
			c2.846,2.968,2.124,7.256,0.206,11.086c-4.826,9.634-9.56,19.404-15.404,28.498c-2.855,4.443-7.747,8.526-12.342,10.977
			c-10.391,5.543-18.863-1.06-16.872-12.554C36.71,465.646,40.209,459.026,45.304,453.06z"/>
		<path style="fill:#D05E52;" d="M698.753,125.647c4.939-3.672,10.206-6.902,15.323-10.336C727.162,106.53,739.219,96.825,750,85.97
			v-8.736c-13.978,15.822-30.679,28.304-51.588,35.242c-18.404,6.107-37.409,5.589-56.431,4.469
			c-4.675-0.275-9.387-0.724-14.034-0.402c-3.954,0.274-9.962-0.582-10.339,4.564c-0.211,2.875,3.976,6.974,7.146,9.043
			c15.284,9.972,32.676,13.497,50.537,14.667c24.686,1.617,49.309-0.117,73.797-3.128c0.306-0.038,0.607-0.086,0.912-0.126v-6.018
			c-11.901,0.651-23.896,0.355-35.863,0.267l0.009-0.003c-8.613-0.083-12.011-0.761-13.818-1.402
			c-0.055-0.021-0.111-0.04-0.165-0.061c-0.294-0.114-0.566-0.23-0.832-0.347c-0.222-0.103-0.421-0.2-0.614-0.289
			C694.426,131.595,694.378,128.899,698.753,125.647z"/>
		<path style="fill:#EA7E24;" d="M639,0c-10.261,7.645-20.582,15.213-31.033,22.593c-4.186,2.956-8.825,5.59-13.643,7.267
			c-9.922,3.455-17.745-1.311-19.903-11.609C573.074,11.815,573.677,5.742,575.63,0h-8.539c-2.546,6.016-4.342,12.408-5.212,19.054
			c-0.255,2.476-0.527,7.443,0.528,13.633c0.817,3.958,1.918,8.821,3.914,13.292c6.435,14.413,16.979,17.9,30.767,10.265
			c7.263-4.022,14.15-9.127,20.236-14.786c13.613-12.658,28.084-24.042,43.828-33.937c3.437-2.16,6.732-4.712,9.745-7.521H639z"/>
		<path style="fill:#EA7E24;" d="M750,161.597c-19.347,3.515-38.903,5.657-58.608,6.295c-13.238,0.428-26.535-1.159-39.814-1.576
			c-0.499-0.016-1.005,0.179-1.513,0.466c-1.039,0.697-3.484,2.935,0.883,4.567c18.321,3.169,36.763,3.39,55.173,1.189
			c14.653-1.752,29.317-3.586,43.878-5.963V161.597z"/>
		<path style="fill:#D85E2B;" d="M538.239,0h-9.034c-4.702,8.158-9.654,16.176-14.553,24.22c-1.011,1.66-2.358,3.193-3.813,4.49
			c-5.073,4.521-10.292,4.032-13.008-2.641c-3.442-8.457-6.978-17.184-8.861-26.069h-12.101c0.061,1.037,0.117,2.073,0.209,3.117
			c1.834,20.856,1.117,41.28-3.144,61.766c-2,9.613-2.294,19.569-3.677,29.325c-0.782,5.522-0.793,12.152-7.059,14.484
			c-5.68,2.115-10.508-1.63-14.631-5.219c-5.762-5.016-11.482-10.133-16.739-15.662c-21.006-22.094-45.33-39.471-72.905-52.443
			c-7.582-3.567-15.047-7.472-22.227-11.785c-10.204-6.128-12.12-11.661-8.198-23.016c0.066-0.19,0.144-0.377,0.211-0.567H251.84
			c-0.589,0.466-1.184,0.925-1.762,1.403c-9.394,7.773-16.447,17.762-20.122,29.624c-3.855,12.44-0.059,19.489,12.421,22.978
			c6.639,1.856,13.477,3.007,20.239,4.41c24.002,4.982,47.99,8.842,72.604,3.79c30.585-6.277,56.263,3.567,78.501,24.643
			c15.933,15.101,32.137,29.933,48.654,44.392c5.285,4.627,11.626,8.422,18.074,11.256c8.256,3.629,14.236,0.352,16.02-8.434
			c1.157-5.7,1.188-11.731,0.965-17.585c-0.327-8.605-1.579-17.174-1.927-25.779c-0.08-1.966-0.031-4.046,0.628-5.994
			c1.071-2.185,3.875-4.802,7.219-0.06c1.745,2.876,2.653,5.994,2.672,9.436c0.076,14.11,7.002,24.229,18.015,32.23
			c27.966,20.316,60.759,28.761,93.276,37.814c1.96,0.546,4.591-1.32,6.911-2.064c-1.95-2.003-3.364-2.415-4.74-2.929
			c-19.13-7.147-38.624-13.472-57.285-21.686c-21.317-9.382-33.265-27.068-38.494-49.513c-3.498-15.014-1.902-29.865,0.971-44.73
			C527.62,27.975,531.873,13.435,538.239,0z"/>
		<path style="fill:#EA7E24;" d="M750,190.401c-8.178,0.728-16.355,1.474-24.53,2.236c-22.049,2.057-44.1,6.126-66.115,5.9
			c-20.273-0.208-40.584-4.45-60.72-7.851c-17.573-2.968-33.68-2.911-47.404,10.957c-6.545,6.614-15.806,8.237-24.864,7.43
			c-30.665-2.733-56.928-14.938-78.399-37.25c-7.691-7.992-15.449-15.995-23.839-23.225c-16.553-14.266-34.808-24.467-57.946-20.473
			c-4.134,0.714-8.26,1.881-12.413,1.994c-9.547,0.261-19.203,0.834-28.641-0.243c-13.441-1.534-26.679-4.766-40.09-6.663
			c-16.818-2.379-31.452,2.535-42.433,15.708c-6.609,7.927-12.492,16.517-18.136,25.176c-10.307,15.812-23.131,28.752-39.908,37.694
			c-14.442,7.698-27.459,17.309-39.499,28.491c-10.334,9.598-22.496,16.751-37.356,14.637c-7.407-1.053-14.884-3.641-21.629-6.957
			C57.974,224.145,29.512,211.254,0,200.803v9.595c32.598,9.475,63.112,23.749,91.092,44.097
			c6.745,4.906,14.181,8.983,21.653,12.738c8.125,4.083,15.821,2.924,22.15-4.118c3.132-3.485,6.665-6.687,9.339-10.493
			c13.979-19.896,31.467-35.81,52.391-48.236c13.356-7.932,23.385-19.487,32.368-32.07c5.86-8.208,12.018-16.287,18.791-23.744
			c16.102-17.728,43.188-14.937,57.845-5.158c8.773,5.854,11.763,13.005,8.135,22.938c-2.939,8.045-6.817,15.86-11.179,23.246
			c-7.394,12.521-15.564,24.582-23.286,36.913c-8.624,13.771-13.704,28.741-10.963,45.001c4.825,28.627,20.003,52.741,35.314,76.675
			c0.786,1.229,1.942,2.231,2.969,3.298c10.475,10.888,22.04,11.775,33.203,1.645c10.285-9.333,22.02-15.716,35.059-20.03
			c4.682-1.549,9.355-3.125,14.027-4.703c15.229-5.144,30.345-10.71,43.408-20.287c25.769-18.893,44.533-41.787,43.032-76.315
			c-0.502-11.554,3.868-14.956,15.426-14.235c1.959,0.122,3.888,0.676,5.846,0.848c13.724,1.202,27.432,2.784,41.184,3.396
			c12.104,0.539,23.373-2.742,33.418-9.946c8.069-5.787,17.186-8.348,27.206-7.86c13.058,0.636,26.129,1.004,39.193,1.508
			c29.01,1.12,57.422-3.786,85.937-8.098c8.799-1.331,17.614-2.647,26.445-3.483V190.401z M447.042,279.578
			c-13.717,18.93-33.048,29.531-55.24,34.5c-12.341,2.763-24.962,4.281-37.551,5.937l0.004-0.003
			c-14.061,1.865-19.661,1.04-24.841,0.26c-19.579-3.615-34.444-14.701-45.025-33.163c-9.981-17.416-10.703-35.551-0.799-52.845
			c12.019-20.986,26.37-40.469,43.921-57.34c12.474-11.991,26.994-14.61,43.056-8.572c5.987,2.251,12.084,4.507,17.579,7.706
			c14.48,8.43,28.945,16.948,42.877,26.238c14.474,9.652,24.52,22.733,26.829,40.66
			C459.629,256.755,454.929,268.694,447.042,279.578z"/>
		<path style="fill:#E4AE42;" d="M433.429,222.642c-18.138-17.972-39.946-30.394-64.055-38.267
			c-15.042-4.912-29.417-1.309-41.545,8.94c-13.648,11.534-25.267,25.031-34.255,40.45c-11.827,20.288-8.168,40.622,9.88,55.536
			c5.01,4.14,11.197,7.24,17.32,9.573c7.237,2.758,14.695,4.411,22.445,5.245l-0.001,0.001c0.034,0.003,0.076,0.007,0.113,0.01
			c2.642,0.281,5.32,0.466,8.033,0.569c4.36,0.219,9.986,0.352,16.262,0.11c1.367,0.003,2.781-0.027,4.19-0.131
			c2.96-0.219,5.892-0.523,8.796-0.907c0.465-0.058,0.931-0.117,1.398-0.181c0.991-0.135,1.838-0.27,2.568-0.407
			c15.018-2.458,29.104-7.595,41.252-17.839c11.13-9.387,18.732-20.858,18.782-36.126
			C444.645,238.776,440.592,229.74,433.429,222.642z M409.692,280.412c-6.951,4.239-15.569,7.287-26.778,8.909
			c-1.572,0.247-3.533,0.485-5.958,0.71c-0.011,0.001-0.021,0.002-0.032,0.003c-0.633,0.059-1.292,0.103-1.939,0.154
			c-0.484,0.037-0.975,0.083-1.455,0.114c-1.981,0.133-4.035,0.229-6.158,0.288l0.002,0.002c-0.43,0.008-1.212,0.033-2.284,0.045
			c-1.244,0.019-2.506,0.029-3.801,0.022c-0.092-0.018-0.197-0.038-0.292-0.057c-8.764-0.242-24.847-1.756-41.087-9.304
			c-0.595-0.266-1.186-0.549-1.772-0.846c-0.046-0.023-0.092-0.043-0.137-0.066l0.006,0c-1.303-0.668-2.581-1.405-3.82-2.2
			c-0.082-0.049-0.16-0.096-0.214-0.128l0.021,0.002c-1.737-1.125-3.404-2.34-4.956-3.605c-10.436-8.506-14.193-20.033-8.783-32.457
			c9.447-21.696,24.925-37.626,48.376-44.338c8.328-2.384,16.732-1.277,24.688,1.72c14.821,5.582,28.965,12.626,41.117,22.926
			C436.003,240.583,433.844,265.683,409.692,280.412z"/>
		<path style="fill:#D05E52;" d="M402.729,228.577c-9.179-7.173-19.752-13.255-30.617-17.441
			c-23.021-8.869-53.307,6.807-61.081,30.343c-3.307,10.012-0.222,19.211,8.901,24.886c3.717,2.313,7.873,4.397,12.106,5.315
			c0.02,0.006,0.043,0.012,0.064,0.018c0.261,0.076,0.537,0.154,0.83,0.237c0.124,0.035,0.262,0.072,0.392,0.108
			c0.203,0.056,0.404,0.112,0.62,0.17c0.153,0.041,0.319,0.085,0.478,0.127c0.211,0.056,0.42,0.112,0.642,0.17
			c0.184,0.048,0.38,0.097,0.571,0.146c0.21,0.053,0.419,0.107,0.638,0.162c0.216,0.054,0.443,0.109,0.667,0.164
			c0.215,0.052,0.43,0.105,0.652,0.158c0.237,0.056,0.482,0.113,0.727,0.171c0.226,0.053,0.453,0.105,0.686,0.158
			c0.255,0.058,0.518,0.116,0.781,0.175c0.237,0.052,0.475,0.105,0.718,0.157c0.279,0.06,0.563,0.12,0.85,0.18
			c0.24,0.05,0.483,0.1,0.728,0.151c0.301,0.061,0.605,0.122,0.914,0.183c0.246,0.048,0.495,0.097,0.746,0.145
			c0.32,0.062,0.644,0.123,0.972,0.183c0.253,0.047,0.51,0.093,0.768,0.139c0.336,0.06,0.674,0.12,1.018,0.179
			c0.262,0.045,0.529,0.089,0.794,0.133c0.352,0.058,0.705,0.116,1.064,0.173c0.267,0.042,0.539,0.083,0.81,0.124
			c0.368,0.056,0.735,0.112,1.11,0.166c0.273,0.039,0.551,0.076,0.828,0.114c0.383,0.053,0.765,0.106,1.155,0.156
			c0.272,0.035,0.549,0.067,0.823,0.101c0.404,0.049,0.805,0.1,1.215,0.146c0.251,0.028,0.509,0.053,0.763,0.081
			c0.44,0.047,0.879,0.095,1.326,0.139c0,0,0,0,0,0c12.336,1.191,27.063,0.812,40.127-4.389
			C417.037,263.554,420.184,242.218,402.729,228.577z M382.916,260.152c-0.683,0.237-1.376,0.443-2.073,0.639
			c-1.182,0.314-2.338,0.58-3.479,0.82c-2.052,0.409-4.15,0.725-6.284,1.014c-6.156,0.698-11.45,0.451-15.522-0.005
			c-6.414-0.929-12.875-1.832-19.108-3.559c-14.632-4.055-17.901-16.212-8.128-27.822c9.398-11.165,26.277-15.971,39.499-9.989
			c7.49,3.389,14.874,7.949,20.844,13.54C398.434,243.94,395.587,255.758,382.916,260.152z"/>
		<g>
			<path style="fill:#D05E52;" d="M750,438.688c-16.5-9.357-31.646-9.625-41.898-7.879c-1.195,0.092-2.727,0.46-4.795,1.03
				c-10.641,2.932-21.167,6.529-31.364,10.754c-10.463,4.335-20.346,10.049-30.711,14.646c-10.554,4.68-21.842,7.486-33.08,3.694
				c-8.727-2.944-17.35-7.019-25.022-12.096c-19.172-12.688-33.266-30.682-47.826-48.102c-11.919-14.26-24.927-27.307-40.802-37.284
				c-9.793-6.155-20.342-9.252-31.716-7.17c-6.956,1.273-13.991,3.415-20.324,6.522c-15.7,7.702-31.096,16.04-46.464,24.399
				c-10.609,5.771-21.009,11.932-31.429,18.043c-26.826,15.734-53.664,13.608-80.313-0.195c-9.403-4.871-18.458-10.453-27.46-16.048
				c-13.314-8.275-27.249-10.014-41.67-3.893c-29.262,12.419-58.468,24.981-87.504,37.918
				c-11.052,4.924-19.407,13.241-25.788,23.689c-3.706,6.068-7.883,12.06-12.85,17.1c-7.372,7.481-12.106,16.06-14.52,26.128
				c-0.803,3.35-1.619,6.719-2.761,9.963c-0.011,0.032-0.024,0.06-0.036,0.092h16.679c0.242-1.07,0.484-2.139,0.733-3.206
				c2.167-9.275,5.986-17.624,12.472-24.802c4.122-4.562,7.789-9.569,11.349-14.596c8.245-11.642,18.443-21.14,30.456-28.79
				c19.911-12.678,41.76-21.043,63.81-29.04c18.936-6.867,37.104-6.287,54.8,3.988c20.337,11.808,42.226,18.602,65.795,20.333
				c14.727,1.082,28.309-1.08,40.999-9.105c12.702-8.033,25.516-15.999,38.851-22.892c13.092-6.767,26.704-12.651,40.444-18.01
				c18.166-7.086,35.256-3.623,51.303,7.009c12.471,8.263,23.057,18.52,32.805,29.72c15.077,17.325,30.102,34.774,49.029,48.063
				c6.311,4.431,13.655,8.116,21.074,10.096c15.538,4.147,30.833,1.474,45.399-5.063c6.514-2.923,12.849-6.245,19.261-9.395
				c13.546-6.657,27.365-12.419,42.666-13.652c10.113-0.974,34.706,2.676,40.41,6.491V438.688z"/>
			<path style="fill:#D05E52;" d="M13.904,482.771c-3.236-16.591,2.232-30.152,16.974-39.37c1.882-1.177,3.723-2.423,5.541-3.697
				c10.297-7.216,20.83-14.126,30.808-21.759c13.302-10.177,19.106-24.367,18.712-40.777c-0.33-13.754-1.085-27.573-2.887-41.2
				c-4.536-34.303-22.618-59.659-53.72-74.657c-9.418-4.542-19.36-7.289-29.332-8.044v14.521c3.219-0.064,6.494,0.151,9.824,0.701
				c28.382,4.686,46.626,21.972,57.88,47.529c6.206,14.093,6.754,29.192,6.817,44.228c0.106,25.053-12.226,43.099-33.076,55.732
				c-8.203,4.97-16.956,9.038-25.471,13.491c-3.71,1.94-7.562,3.631-11.157,5.76c-1.803,1.068-3.418,2.316-4.818,3.723v54.51
				c0.869,1.634,1.818,3.25,2.89,4.837c0.395,0.584,0.812,1.135,1.218,1.702h17.548C17.899,495.28,15.231,489.572,13.904,482.771z"
				/>
		</g>
		<path style="fill:#EA7E24;" d="M615.289,385.907c-2.138-5.986-4.303-12.109-7.533-17.531
			c-7.536-12.652-15.225-25.274-23.827-37.207c-4.902-6.8-10.714-5.639-13.964,2.2c-0.722,1.741-1.319,3.534-1.856,5.347
			c-1.26,4.758-3.22,11.7-1.249,21.164c4.771,16.534,13.283,30.276,27.973,40.262c0.793,0.539,1.803,0.768,2.724,1.11
			c5.17,1.921,10.29,2.055,14.585-1.777C616.218,395.836,617.063,390.872,615.289,385.907z"/>
		<path style="fill:#EA7E24;" d="M750,277.131c-7.753,6.409-17.196,8.875-27.537,8.777c-5.394-0.051-10.803-0.641-16.168-1.292
			c-10.184-1.235-14.5-7.27-12.774-17.504c2.498-14.814,15.855-25.788,33.328-27.335c1.463-0.13,2.947-0.017,4.422-0.017
			c4.598,0.438,12.431,1.589,18.73,5.257V224.61c-9.919-1.275-18.137-0.653-20.383-0.447c-18.029,1.843-35.401,6.91-51.746,15.76
			c-13.051,7.066-21.211,18.115-22.919,32.569c-1.164,9.851-0.885,20.325,1.158,30.014c5.535,26.263,24.349,40.902,54.234,26.898
			c9.273-4.345,19.328-7.185,29.23-9.991c3.559-1.009,7.04-2.132,10.425-3.396V277.131z"/>
		<path style="fill:#D85E2B;" d="M585.777,70.197c-4.155,0.204-8.539,1.358-11.284,4.484c-3.814,4.345-3.268,10.993-1.5,16.497
			c2.331,7.257,6.409,13.947,11.791,19.345c2.426,2.432,5.538,4.742,8.949,4.337c2.711-0.322,4.9-2.282,6.893-4.147
			c3.361-3.146,6.84-6.469,8.355-10.816c1.637-4.697,0.534-9.325-0.789-13.927c-0.788-2.742-1.182-5.816-2.465-8.388
			C602.478,71.069,592.137,69.884,585.777,70.197z"/>
		<g>
			<path style="fill:#E4AE42;" d="M750,450.268c-11.116-3.973-24.855-4.658-33.522-4.054c-0.265,0.014-0.529,0.033-0.793,0.055
				c-0.04,0.003-0.085,0.005-0.125,0.009l-0.001,0.003c-1.805,0.163-3.578,0.483-5.308,0.67
				c-17.751,1.921-33.652,9.316-49.15,17.534c-14.44,7.657-29.598,11.916-45.993,12.076c-15.027,0.147-29.014-2.61-40.394-13.222
				c-10.997-10.254-21.98-20.534-32.678-31.098c-11.225-11.085-21.618-23.05-33.243-33.683
				c-20.474-18.729-44.066-23.021-70.003-12.53c-22.469,9.087-44.466,19.111-63.329,34.72c-9.903,8.194-21.321,11.285-33.782,10.445
				c-27.741-1.87-54.629-7.409-79.915-19.524c-5.32-2.549-10.872-4.755-16.517-6.458c-11.782-3.555-23.434-1.675-34.949,1.735
				c-39.77,11.776-75.127,30.076-98.364,66.339c-0.66,1.03-1.539,1.929-2.366,2.844c-6.223,6.882-9.903,14.945-11.856,23.871h7.402
				c3.115-9.507,7.797-18.451,14.283-27.174c21.913-29.471,50.327-47.92,84.916-58.497c20.199-6.177,39.378-5.509,59.151,2.426
				c29.44,11.814,60.508,17.304,92.04,20.256c10.405,0.974,18.591-2.288,25.583-10.232c4.998-5.679,10.497-11.692,17.055-15.069
				c14.844-7.645,30.171-14.614,45.874-20.271c20.503-7.386,40.068-3.36,57.418,9.515c8.079,5.996,15.464,13.015,22.68,20.064
				c14.997,14.65,29.675,29.625,44.477,44.474c12.862,12.904,28.937,16.201,46.299,15.145c18.701-1.138,36.117-6.584,52.975-14.9
				c11.4-5.623,23.646-9.749,35.844-13.458c3.193-0.971,6.537-1.456,10.027-1.805c6.218-0.507,23.045-1.117,36.267,4.862V450.268z"
				/>
			<path style="fill:#E4AE42;" d="M0,290.564c16.997-2.48,33.194,4.156,44.812,18.669c10.629,13.278,13.592,28.589,12.758,45.158
				c-0.787,15.635-6.711,28.652-18.483,38.936c-9.642,8.424-20.851,14-33.129,17.452c-1.975,0.555-3.965,1.057-5.959,1.55v10.658
				c2.137-0.966,4.477-1.903,7.061-2.818c11.943-4.23,23.453-10.4,34.14-17.273c13.701-8.812,21.567-22.239,23.595-38.54
				c0.787-6.327,0.752-12.814,0.48-19.203c-0.917-21.586-9.376-39.635-26.301-53.328c-10.538-8.526-22.764-13.342-36.337-12.226
				c-0.88,0.072-1.759,0.178-2.637,0.29V290.564z"/>
		</g>
		<path style="fill:#D85E2B;" d="M670.363,230.34c17.369-5.396,34.95-10.437,52.766-13.989c8.955-1.785,17.963-2.728,26.871-2.346
			v-6.441c-21.787,0.757-42.887,5.563-64.029,10.104c-12.984,2.788-26.044,5.614-38.635,9.746
			c-21.044,6.906-31.523,22.16-31.367,44.055c0.047,6.627,0.593,13.297,1.514,19.863c3.492,24.884,11.764,47.754,28.636,67
			c6.5,7.414,12.905,14.965,18.712,22.921c8.884,12.172,8.229,22.026-1.717,33.426c-8.744,10.024-19.441,17.429-31.78,22.387
			c-11.441,4.598-22.62,3.879-33.504-1.948c-12.792-6.849-24.004-15.727-32.855-27.176c-14.628-18.922-28.887-38.131-43.15-57.331
			c-5.798-7.805-10.062-16.327-11.008-26.28c-0.298-3.14-1.334-6.291-2.501-9.252c-3.473-8.809-10.602-12.868-19.487-9.847
			c-6.899,2.345-13.475,5.994-19.719,9.834c-14.906,9.166-29.525,18.798-44.271,28.223c-17.438,11.145-34.863,22.312-52.35,33.38
			c-6.865,4.345-13.577,9.096-20.888,12.54c-21.556,10.156-42.465,9.407-62.017-5.342c-5.317-4.01-10.789-7.832-15.917-12.071
			c-12.938-10.695-23.185-23.393-24.058-40.869c-1.18-23.626-2.098-47.316-1.666-70.952c0.271-14.825,4.933-28.988,12.772-41.987
			c4.18-6.931,7.52-14.42,10.675-21.895c1.592-3.77,2.561-8.047,2.698-12.132c0.265-7.89-4.931-11.611-12.127-8.267
			c-4.778,2.221-9.377,5.684-12.884,9.631c-15.009,16.897-31.66,31.768-50.711,43.995c-4.112,2.639-7.824,6.034-11.298,9.504
			c-8.48,8.472-12.307,18.779-11.57,30.833c0.738,12.063,4.869,23.101,10.018,33.796c3.849,7.994,8.408,15.646,12.257,23.639
			c6.962,14.46,4.983,25.687-6.433,36.993c-10.24,10.141-22.781,16.273-36.504,20.217c-25.191,7.239-38.158,0.336-44.906-24.806
			c-2.924-10.895-4.375-22.178-6.652-33.253c-6.735-32.768-25.427-57.339-53.003-75.31C34.749,240.812,17.847,234.553,0,230.965
			v10.143c45.068,5.782,84.336,42.107,92.591,87.003c2.002,10.888,3.073,21.943,4.887,32.869c1.772,10.676,3.326,21.451,6.13,31.873
			c2.507,9.317,8.058,13.359,17.627,12.357c10.201-1.068,20.404-3.353,30.254-6.286c22.61-6.733,43.151-18.157,63.563-29.7
			c13.046-7.377,25.142-6.534,37.311,2.294c11.174,8.106,22.858,15.518,34.417,23.086c21.599,14.141,44.258,16.127,67.322,4.3
			c13.353-6.848,25.892-15.262,39.038-22.538c20.697-11.456,41.373-22.988,62.486-33.642c14.86-7.499,28.996-4.846,42.081,5.678
			c16.844,13.547,31.54,29.06,44.835,46.014c13.416,17.109,27.309,33.658,45.407,46.325c17.943,12.558,36.219,14.578,55.609,4.223
			c13.056-6.973,25.744-14.694,39.087-21.051c2.842-1.354,5.757-2.605,8.712-3.767l-0.011-0.006
			c0.088-0.031,0.187-0.067,0.276-0.098c1.871-0.731,3.759-1.424,5.663-2.071c2.149-0.811,4.521-1.732,7.101-2.755v0
			c0.012-0.005,0.027-0.011,0.039-0.016c0.299-0.119,0.599-0.238,0.904-0.359c8.443-3.316,32.274-11.321,44.672,6.76v-25.234l0,0
			v-53.379c-13.313,4.467-26.224,9.561-38.677,16.061c-12.648,6.602-25.323,5.328-37.511-1.599
			c-12.768-7.258-22.718-17.282-29.199-30.571c-6.714-13.766-9.99-28.463-10.11-43.626
			C634.261,252.866,646.49,237.757,670.363,230.34z M234.803,272.539c-0.76,7.128-1.573,14.52-2.595,21.884
			c-0.778,5.6-2.168,11.7-8.307,13.822c-6.238,2.157-10.879-2.052-14.936-6.041c-9.353-9.195-15.773-20.113-18.117-33.167
			c-1.24-6.906,0.259-13.475,4.449-18.893c7.336-9.486,17.403-15.223,28.942-18.002c6.429-1.548,9.799,1.042,10.677,7.876
			c0.422,3.286,0.619,6.605,0.768,10.092C235.833,253.971,235.906,261.641,234.803,272.539z"/>
	</g>
</g>
</svg>
